<svg width="24" height="25" viewBox="0 0 24 25" fill="none" xmlns="http://www.w3.org/2000/svg">
<mask id="mask0_512_53501" style="mask-type:alpha" maskUnits="userSpaceOnUse" x="0" y="0" width="24" height="25">
<rect y="0.5" width="24" height="24" fill="#D9D9D9"/>
</mask>
<g mask="url(#mask0_512_53501)">
<path fill-rule="evenodd" clip-rule="evenodd" d="M14.5 18.505C14.5 19.0573 14.9477 19.505 15.5 19.505C16.0523 19.505 16.5 19.0573 16.5 18.505V18.3895V15.4998H21.5C22.0523 15.4998 22.5 15.0521 22.5 14.4998C22.5 13.9475 22.0523 13.4998 21.5 13.4998H16.5V10.4998H21.5C22.0523 10.4998 22.5 10.0521 22.5 9.49979C22.5 8.94751 22.0523 8.49979 21.5 8.49979H16.5V5.56061V5.44434C16.5 4.89205 16.0523 4.44434 15.5 4.44434C14.9477 4.44434 14.5 4.89205 14.5 5.44434V5.56061L10.9242 5.5606C8.82837 5.5606 7.6588 7.48338 7.03239 8.62863C6.80607 9.04239 6.65386 9.14734 6.48353 9.14734H2.50996C1.25199 9.14734 0.5 10.1398 0.5 11.1071V12.9805C0.5 13.9477 1.22522 15.1761 2.50996 15.1761L6.50627 15.1761C6.7165 15.1761 6.7925 15.3298 6.91093 15.5694C6.95103 15.6506 6.996 15.7415 7.05269 15.8397C7.69799 16.9573 8.86996 18.3895 10.9242 18.3895H14.5V18.505ZM11.4111 16.4397C8.95327 16.4397 7.82203 12.9805 7.82203 12.9805H2.50996V11.1071H7.82203C7.82203 11.1071 8.95327 7.53713 11.4111 7.53713H14.4639L14.4639 16.4397H11.4111Z" fill="#6E7179"/>
</g>
</svg>
