<svg width="24" height="25" viewBox="0 0 24 25" fill="none" xmlns="http://www.w3.org/2000/svg">
<rect x="8.69897" y="9.5" width="10.3027" height="6" rx="0.75" fill="#27AE60"/>
<path fill-rule="evenodd" clip-rule="evenodd" d="M19.52 6.26904H5.50003C3.81647 6.26904 2.76607 7.4595 2.76607 8.92979V9.733C2.00144 9.96233 1.41365 10.7535 1.41365 11.6947L1.41357 13.2534C1.41357 14.1945 2.00136 14.9858 2.76599 15.2151V15.9794C2.76599 17.4517 3.80997 18.7269 5.49997 18.7269H19.5C21.1461 18.7269 22.236 17.8303 22.236 15.9594L22.2361 8.99979C22.2361 7.12893 21.1662 6.26904 19.52 6.26904ZM4.72676 8.26833C4.91265 8.06201 5.21111 7.9057 5.64593 7.9057L19.2727 7.90571C20.0505 7.90571 20.5729 8.395 20.5729 9.27898L20.5728 15.7252C20.5728 16.6092 20.0504 17.0985 19.2726 17.0985L5.64583 17.0985C5.21101 17.0985 4.91255 16.9422 4.72666 16.7359C4.54288 16.5319 4.40416 16.2073 4.40416 15.7252L4.40425 13.7874H3.23192C3.0236 13.7874 2.98071 13.637 2.98071 13.5062L2.98078 11.4868C2.98078 11.3185 3.06357 11.2201 3.23192 11.2201H4.40426V9.27898C4.40426 8.79687 4.54298 8.47232 4.72676 8.26833Z" fill="#9DA1A9"/>
</svg>
