<svg width="25" height="25" viewBox="0 0 25 25" fill="none" xmlns="http://www.w3.org/2000/svg">
<mask id="mask0_221_23114" style="mask-type:alpha" maskUnits="userSpaceOnUse" x="0" y="0" width="25" height="25">
<rect x="0.460693" y="0.838623" width="24" height="24" fill="#D9D9D9"/>
</mask>
<g mask="url(#mask0_221_23114)">
<path fill-rule="evenodd" clip-rule="evenodd" d="M5.924 3.89346C3.45898 3.89346 1.46069 5.89176 1.46069 8.35678V11.702C1.46069 12.2543 1.90841 12.702 2.46069 12.702C3.01298 12.702 3.46069 12.2543 3.46069 11.702V8.35678C3.46069 6.99633 4.56356 5.89346 5.924 5.89346C7.28445 5.89346 8.38731 6.99633 8.38731 8.35677V12.8385H7.72008C7.02454 12.8385 6.46069 13.4024 6.46069 14.0979V19.5791C6.46069 20.2747 7.02454 20.8385 7.72008 20.8385H17.2013C17.8968 20.8385 18.4607 20.2747 18.4607 19.5791V14.0979C18.4607 13.4024 17.8968 12.8385 17.2013 12.8385H10.3873V8.35677C10.3873 5.89176 8.38902 3.89346 5.924 3.89346Z" fill="#232B3A"/>
</g>
</svg>
