<svg width="24" height="24" viewBox="0 0 24 24" fill="none" xmlns="http://www.w3.org/2000/svg">
<mask id="mask0_5379_92996" style="mask-type:alpha" maskUnits="userSpaceOnUse" x="0" y="0" width="24" height="24">
<rect width="24" height="24" fill="#D9D9D9"/>
</mask>
<g mask="url(#mask0_5379_92996)">
<path d="M12 20C14.2333 20 16.125 19.225 17.675 17.675C19.225 16.125 20 14.2333 20 12C20 9.76667 19.225 7.875 17.675 6.325C16.125 4.775 14.2333 4 12 4C10.85 4 9.75 4.23767 8.7 4.713C7.65 5.18767 6.75 5.86667 6 6.75V4H4V11H11V9H6.8C7.33333 8.06667 8.06233 7.33333 8.987 6.8C9.91233 6.26667 10.9167 6 12 6C13.6667 6 15.0833 6.58333 16.25 7.75C17.4167 8.91667 18 10.3333 18 12C18 13.6667 17.4167 15.0833 16.25 16.25C15.0833 17.4167 13.6667 18 12 18C10.7167 18 9.55833 17.6333 8.525 16.9C7.49167 16.1667 6.76667 15.2 6.35 14H4.25C4.71667 15.7667 5.66667 17.2083 7.1 18.325C8.53333 19.4417 10.1667 20 12 20Z" fill="#232B3A"/>
</g>
</svg>
