<svg width="33" height="33" viewBox="0 0 33 33" fill="none" xmlns="http://www.w3.org/2000/svg">
<g id="ocobee bee logo">
<path d="M23.9016 25.4686C23.7221 25.7318 20.7023 25.2686 19.752 20.2573C18.8017 15.2461 20.9663 14.846 20.9663 14.846C20.9663 14.846 23.7115 14.0564 25.0525 19.7836C26.2773 24.9948 23.9016 25.4686 23.9016 25.4686ZM15.4652 18.5518C15.4652 18.5518 15.4652 18.5518 15.4546 18.5518C13.987 17.5727 13.4591 16.6989 13.4591 16.6989C14.7155 16.5199 16.1832 15.7409 16.1832 15.7409L16.9962 16.3094V16.3199L17.8303 16.8674C17.8303 16.8674 17.6508 18.5097 17.9359 19.7415C17.9359 19.7415 16.9223 19.573 15.4758 18.5729M5.84626 13.2458C5.84626 13.2458 5.42391 10.8454 10.7772 10.0664C16.6583 9.21362 16.9329 12.0667 16.9329 12.0667C16.9329 12.0667 17.3446 14.2459 12.287 15.204C7.21889 16.162 5.66676 13.509 5.84626 13.2458ZM19.9949 7.1291C20.6073 7.55022 20.7657 8.37139 20.3433 8.982C19.9315 9.59262 19.0974 9.75054 18.485 9.32942C17.8726 8.91884 17.7142 8.08714 18.1365 7.47652C18.5483 6.86591 19.3825 6.70799 19.9949 7.1291ZM24.4401 10.1506C25.0525 10.5612 25.2109 11.3929 24.7991 12.0035C24.3873 12.6141 23.5531 12.7615 22.9407 12.3509C22.3283 11.9403 22.17 11.1086 22.5923 10.498C23.0041 9.8874 23.8382 9.72948 24.4506 10.1506M26.9742 20.7311C26.6046 17.678 24.968 15.2355 24.3345 14.5407C24.3345 14.5407 24.2711 14.5196 24.3239 14.3933C24.3767 14.267 24.4823 13.8985 24.4823 13.8985C24.4823 13.8985 24.4823 13.8564 24.5562 13.8353C24.6301 13.8143 25.3904 13.6564 25.9816 12.7931C26.5729 11.9298 26.953 10.1401 24.9363 8.77145C24.9363 8.77145 24.9258 8.77145 24.9047 8.6767C24.8941 8.59247 24.5668 7.1291 23.6798 6.51849C22.7929 5.9184 21.3041 6.15002 21.2197 6.17107C21.1352 6.19213 21.1247 6.17107 21.1247 6.17107C19.1079 4.80245 17.5769 5.81313 16.9857 6.67641C16.3944 7.53969 16.5316 8.30822 16.5316 8.38192C16.5316 8.45561 16.5 8.46614 16.5 8.46614C16.5 8.46614 16.2043 8.70828 16.0987 8.7925C16.0037 8.87673 15.9615 8.83461 15.9615 8.83461C15.0745 8.49772 12.192 7.86605 9.21448 8.64511C6.23693 9.42417 5.05436 10.5191 4.39972 11.4771C3.74509 12.4351 3.37553 14.3512 5.42391 15.7409C7.4723 17.1305 10.3759 17.0042 10.3759 17.0042C10.4604 17.0042 10.471 17.0674 10.471 17.0674C11.1784 19.573 13.5224 21.0364 13.6808 21.1417C13.8392 21.2575 16.067 22.8893 18.6539 22.6261C18.6539 22.6261 18.7173 22.6156 18.749 22.6998C18.749 22.6998 19.6992 25.437 21.7371 26.8267C23.7854 28.2164 25.4326 27.1741 26.0872 26.2161C26.7419 25.258 27.3331 23.7631 26.9742 20.7205M17.0596 23.7947C17.0596 23.7947 15.0957 23.8789 12.8467 22.3524C10.5977 20.8258 9.95358 18.9729 9.95358 18.9729C9.90079 18.8255 9.848 18.9203 9.848 18.9203C9.24615 19.8046 9.06665 20.31 9.40453 21.7207C9.73185 23.0788 11.379 24.2368 11.4951 24.3211C11.6113 24.3948 13.2901 25.5002 14.6839 25.3107C16.1198 25.1106 16.5316 24.7527 17.1335 23.8684C17.1335 23.8684 17.1968 23.7841 17.049 23.7947M12.6249 26.1845C12.6249 26.1845 11.6746 26.1845 10.6821 25.5212L10.1753 26.2582L10.6821 25.5107C9.68962 24.8369 9.34118 23.9526 9.34118 23.9526C9.1828 23.7104 9.14056 23.9526 9.14056 23.9526C8.59151 26.0687 9.53124 26.9846 9.6157 27.0583C9.71073 27.1004 10.9144 27.6373 12.6883 26.3529C12.6883 26.3529 12.8994 26.2266 12.6144 26.174" fill="#5DBE77"/>
</g>
</svg>
