<svg width="19" height="22" viewBox="0 0 19 22" fill="none" xmlns="http://www.w3.org/2000/svg">
<path fill-rule="evenodd" clip-rule="evenodd" d="M13 9.5C15.2091 9.5 17 7.70914 17 5.5C17 3.29086 15.2091 1.5 13 1.5C10.7909 1.5 9 3.29086 9 5.5C9 7.70914 10.7909 9.5 13 9.5ZM13 11C16.0376 11 18.5 8.53757 18.5 5.5C18.5 2.46243 16.0376 0 13 0C9.96243 0 7.5 2.46243 7.5 5.5C7.5 8.53757 9.96243 11 13 11ZM14.5469 7.82812L15.4375 6.9375L13.75 5.25V3H12.5V5.76562L14.5469 7.82812ZM4.99976 1C5.79675 1 6.5393 1.23309 7.16296 1.63482C6.78977 2.19726 6.49571 2.81676 6.29664 3.47742C5.94745 3.17971 5.49459 3 4.99976 3C3.89519 3 2.99976 3.89543 2.99976 5V14.6671L2.59874 15.2009C2.22214 15.7021 1.99976 16.3222 1.99976 17C1.99976 18.6569 3.3429 20 4.99976 20C6.65661 20 7.99976 18.6569 7.99976 17C7.99976 16.3222 7.77738 15.7021 7.40077 15.2009L6.99976 14.6671V9.10718C7.50919 9.95277 8.19232 10.6819 8.99976 11.2451V13.9995C9.62767 14.8353 9.99976 15.8742 9.99976 17C9.99976 19.7614 7.76118 22 4.99976 22C2.23833 22 -0.000244141 19.7614 -0.000244141 17C-0.000244141 15.8742 0.371845 14.8353 0.999756 13.9995V5C0.999756 2.79086 2.79062 1 4.99976 1ZM3.99976 15.2676V8H5.99976V15.2676C6.59756 15.6134 6.99976 16.2597 6.99976 17C6.99976 18.1046 6.10433 19 4.99976 19C3.89519 19 2.99976 18.1046 2.99976 17C2.99976 16.2597 3.40195 15.6134 3.99976 15.2676Z" fill="#232B3A"/>
</svg>
