<svg width="18" height="18" viewBox="0 0 18 18" fill="none" xmlns="http://www.w3.org/2000/svg">
<mask id="mask0_935_40166" style="mask-type:alpha" maskUnits="userSpaceOnUse" x="0" y="0" width="18" height="18">
<rect width="18" height="18" fill="#D9D9D9"/>
</mask>
<g mask="url(#mask0_935_40166)">
<path d="M3.75 16.5C3.3375 16.5 2.98425 16.3533 2.69025 16.0597C2.39675 15.7657 2.25 15.4125 2.25 15V4.5H3.75V15H12V16.5H3.75ZM6.75 13.5C6.3375 13.5 5.9845 13.3533 5.691 13.0597C5.397 12.7657 5.25 12.4125 5.25 12V3C5.25 2.5875 5.397 2.23425 5.691 1.94025C5.9845 1.64675 6.3375 1.5 6.75 1.5H13.5C13.9125 1.5 14.2657 1.64675 14.5597 1.94025C14.8533 2.23425 15 2.5875 15 3V12C15 12.4125 14.8533 12.7657 14.5597 13.0597C14.2657 13.3533 13.9125 13.5 13.5 13.5H6.75ZM6.75 12H13.5V3H6.75V12Z" fill="#007AFC"/>
</g>
</svg>
