<svg width="25" height="25" viewBox="0 0 25 25" fill="none" xmlns="http://www.w3.org/2000/svg">
  <g id="icn24/copy">
    <g>
      <path id="content_copy" d="M5.84082 22.9883C5.29082 22.9883 4.81982 22.7926 4.42782 22.4013C4.03649 22.0093 3.84082 21.5383 3.84082 20.9883V6.98828H5.84082V20.9883H16.8408V22.9883H5.84082ZM9.84082 18.9883C9.29082 18.9883 8.82015 18.7926 8.42882 18.4013C8.03682 18.0093 7.84082 17.5383 7.84082 16.9883V4.98828C7.84082 4.43828 8.03682 3.96728 8.42882 3.57528C8.82015 3.18395 9.29082 2.98828 9.84082 2.98828H18.8408C19.3908 2.98828 19.8618 3.18395 20.2538 3.57528C20.6452 3.96728 20.8408 4.43828 20.8408 4.98828V16.9883C20.8408 17.5383 20.6452 18.0093 20.2538 18.4013C19.8618 18.7926 19.3908 18.9883 18.8408 18.9883H9.84082ZM9.84082 16.9883H18.8408V4.98828H9.84082V16.9883Z" fill="#232B3A"/>
    </g>
  </g>
</svg>
