<svg width="24" height="24" viewBox="0 0 24 24" fill="none" xmlns="http://www.w3.org/2000/svg">
<path fill-rule="evenodd" clip-rule="evenodd" d="M16.8361 3.33578C15.8207 3.33578 14.8469 3.73914 14.129 4.45711L3.62895 14.9571C3.44142 15.1446 3.33606 15.399 3.33606 15.6642V19.6642C3.33606 20.2165 3.78377 20.6642 4.33606 20.6642H8.33606C8.60128 20.6642 8.85563 20.5589 9.04317 20.3713L18.5432 10.8713L19.5432 9.87132C20.2611 9.15335 20.6645 8.17957 20.6645 7.16421C20.6645 6.14885 20.2611 5.17508 19.5432 4.45711C18.8252 3.73914 17.8514 3.33578 16.8361 3.33578ZM17.8361 8.75L18.129 8.45711C18.4718 8.11421 18.6645 7.64914 18.6645 7.16421C18.6645 6.67928 18.4718 6.21422 18.129 5.87132C17.7861 5.52842 17.321 5.33578 16.8361 5.33578C16.3511 5.33578 15.8861 5.52842 15.5432 5.87132L15.2503 6.16421L17.8361 8.75ZM13.8361 7.57843L5.33606 16.0784V18.6642H7.92185L16.4218 10.1642L13.8361 7.57843Z" fill="#232426"/>
</svg>
