<svg width="24" height="25" viewBox="0 0 24 25" fill="none" xmlns="http://www.w3.org/2000/svg">
<mask id="mask0_75_29448" style="mask-type:alpha" maskUnits="userSpaceOnUse" x="0" y="0" width="24" height="25">
<rect y="0.0175781" width="24" height="24" fill="#D9D9D9"/>
</mask>
<g mask="url(#mask0_75_29448)">
<path d="M12 17.0176C12.2833 17.0176 12.521 16.9216 12.713 16.7296C12.9043 16.5382 13 16.3009 13 16.0176C13 15.7342 12.9043 15.4966 12.713 15.3046C12.521 15.1132 12.2833 15.0176 12 15.0176C11.7167 15.0176 11.4793 15.1132 11.288 15.3046C11.096 15.4966 11 15.7342 11 16.0176C11 16.3009 11.096 16.5382 11.288 16.7296C11.4793 16.9216 11.7167 17.0176 12 17.0176ZM11 13.0176H13V7.01758H11V13.0176ZM12 22.0176C10.6167 22.0176 9.31667 21.7549 8.1 21.2296C6.88333 20.7049 5.825 19.9926 4.925 19.0926C4.025 18.1926 3.31267 17.1342 2.788 15.9176C2.26267 14.7009 2 13.4009 2 12.0176C2 10.6342 2.26267 9.33425 2.788 8.11758C3.31267 6.90091 4.025 5.84258 4.925 4.94258C5.825 4.04258 6.88333 3.32991 8.1 2.80458C9.31667 2.27991 10.6167 2.01758 12 2.01758C13.3833 2.01758 14.6833 2.27991 15.9 2.80458C17.1167 3.32991 18.175 4.04258 19.075 4.94258C19.975 5.84258 20.6873 6.90091 21.212 8.11758C21.7373 9.33425 22 10.6342 22 12.0176C22 13.4009 21.7373 14.7009 21.212 15.9176C20.6873 17.1342 19.975 18.1926 19.075 19.0926C18.175 19.9926 17.1167 20.7049 15.9 21.2296C14.6833 21.7549 13.3833 22.0176 12 22.0176ZM12 20.0176C14.2333 20.0176 16.125 19.2426 17.675 17.6926C19.225 16.1426 20 14.2509 20 12.0176C20 9.78424 19.225 7.89258 17.675 6.34258C16.125 4.79258 14.2333 4.01758 12 4.01758C9.76667 4.01758 7.875 4.79258 6.325 6.34258C4.775 7.89258 4 9.78424 4 12.0176C4 14.2509 4.775 16.1426 6.325 17.6926C7.875 19.2426 9.76667 20.0176 12 20.0176Z" fill="#E36857"/>
</g>
</svg>
