<svg width="22" height="22" viewBox="0 0 22 22" fill="none" xmlns="http://www.w3.org/2000/svg">
<g>
<mask style="mask-type:alpha" maskUnits="userSpaceOnUse" x="0" y="0" width="22" height="22">
<rect width="22" height="22" fill="#D9D9D9"/>
</mask>
<g>
<path id="mode_fan" d="M12.1261 20.113C11.3795 20.3131 10.7524 20.2418 10.2448 19.8993C9.7372 19.5567 9.40692 19.1 9.25393 18.529C9.15195 18.1484 9.13708 17.7562 9.20932 17.3524C9.28157 16.9487 9.46199 16.5826 9.75057 16.2542C10.0177 15.963 10.207 15.6298 10.3183 15.2548C10.4296 14.8798 10.4729 14.4995 10.448 14.1139L10.1492 14.0527C10.0496 14.0324 9.95534 14.0027 9.86645 13.9637L8.04038 15.2297C7.81505 15.3842 7.59311 15.5222 7.37457 15.6435C7.15603 15.7648 6.92233 15.8588 6.67346 15.9255C5.75118 16.1726 4.82716 15.9887 3.90141 15.3738C2.97565 14.7589 2.30488 13.6755 1.88908 12.1238C1.68903 11.3771 1.76028 10.75 2.10283 10.2425C2.44538 9.73488 2.8948 9.40656 3.4511 9.2575C3.83172 9.15551 4.22758 9.13966 4.63868 9.20995C5.04977 9.28023 5.41951 9.45967 5.74788 9.74825C6.03913 10.0154 6.37226 10.2046 6.74729 10.316C7.12231 10.4273 7.50262 10.4705 7.88822 10.4457L7.94936 10.1469C7.96975 10.0473 7.99941 9.95302 8.03835 9.86413L6.77238 8.03806C6.61786 7.81273 6.47994 7.59079 6.35862 7.37225C6.2373 7.15371 6.14526 6.92733 6.0825 6.6931C5.83145 5.75618 6.01339 4.82484 6.62831 3.89909C7.24323 2.97333 8.32658 2.30256 9.87835 1.88676C10.625 1.68671 11.2521 1.75796 11.7596 2.10051C12.2672 2.44306 12.5955 2.89248 12.7446 3.44878C12.8466 3.82941 12.8624 4.22526 12.7922 4.63636C12.7219 5.04745 12.5424 5.41719 12.2538 5.74556C11.9867 6.03681 11.7975 6.36994 11.6861 6.74497C11.5748 7.11999 11.5316 7.5003 11.5564 7.8859L11.8552 7.94704C11.9548 7.96743 12.0491 7.99709 12.138 8.03603L13.9582 6.7481C14.1835 6.59358 14.4027 6.4603 14.6159 6.34827C14.8291 6.23623 15.0601 6.14687 15.309 6.08018C16.4948 5.76245 17.5119 6.01555 18.3603 6.83949C19.2087 7.66342 19.7937 8.6756 20.1153 9.87603C20.3154 10.6226 20.2332 11.2527 19.8687 11.7661C19.5041 12.2796 19.0364 12.6128 18.4655 12.7658C18.0995 12.8639 17.7219 12.8748 17.3328 12.7987C16.9437 12.7225 16.5849 12.5401 16.2565 12.2515C15.9653 11.9844 15.6322 11.7951 15.2571 11.6838C14.8821 11.5725 14.5018 11.5292 14.1162 11.5541L14.0551 11.8529C14.0347 11.9525 14.005 12.0468 13.9661 12.1357L15.232 13.9617C15.3826 14.1724 15.5157 14.3761 15.6311 14.5726C15.7465 14.7692 15.8356 14.9846 15.8984 15.2188C16.168 16.1665 15.9983 17.1142 15.3892 18.0619C14.7802 19.0096 13.6925 19.6933 12.1261 20.113ZM11.3552 12.3174C11.7212 12.2194 11.998 12.0079 12.1855 11.6831C12.3731 11.3583 12.4178 11.0128 12.3198 10.6469C12.2217 10.2809 12.0102 10.0041 11.6854 9.81656C11.3606 9.62902 11.0152 9.58428 10.6492 9.68235C10.2832 9.78041 10.0064 9.99186 9.81888 10.3167C9.63134 10.6415 9.5866 10.9869 9.68467 11.3529C9.78273 11.7189 9.99418 11.9957 10.319 12.1832C10.6439 12.3708 10.9893 12.4155 11.3552 12.3174ZM9.21542 8.37195C9.29541 8.31914 9.38004 8.269 9.46931 8.22155C9.55858 8.17409 9.64518 8.13128 9.72909 8.0931C9.68146 7.44687 9.75172 6.81611 9.9399 6.20083C10.1281 5.58556 10.4459 5.02968 10.8934 4.53319C10.9509 4.45502 10.9899 4.36614 11.0103 4.26653C11.0306 4.16693 11.0232 4.05125 10.9879 3.91949C10.9565 3.80238 10.8861 3.71533 10.7767 3.65835C10.6673 3.60137 10.5247 3.59641 10.3491 3.64349C9.79277 3.79255 9.19564 4.08199 8.55767 4.51183C7.9197 4.94166 7.68022 5.51185 7.83923 6.22238C7.87453 6.35414 7.92617 6.47367 7.99415 6.58098C8.06213 6.68829 8.12449 6.78926 8.18123 6.88389L9.21542 8.37195ZM6.20275 14.1688C6.4077 14.1138 6.63552 13.9979 6.88621 13.8209L8.37427 12.7867C8.32146 12.7067 8.27132 12.6221 8.22387 12.5328C8.17641 12.4435 8.1336 12.3569 8.09542 12.273C7.44919 12.3206 6.81843 12.2504 6.20315 12.0622C5.58788 11.874 5.032 11.5562 4.53551 11.1087C4.45734 11.0512 4.3648 11.0132 4.25787 10.9948C4.15095 10.9764 4.03893 10.9828 3.92181 11.0142C3.79006 11.0495 3.69935 11.1209 3.64969 11.2284C3.60003 11.3358 3.59873 11.4774 3.64581 11.653C3.85763 12.4436 4.194 13.0987 4.65494 13.6185C5.11587 14.1383 5.63181 14.3217 6.20275 14.1688ZM11.6554 18.3563C12.3434 18.1719 12.9832 17.8514 13.5748 17.3948C14.1663 16.9382 14.3553 16.3698 14.1417 15.6896C14.1103 15.5724 14.0626 15.4676 13.9985 15.3749C13.9344 15.2822 13.876 15.1959 13.8232 15.1159L12.789 13.6278C12.709 13.6806 12.6244 13.7308 12.5351 13.7782C12.4458 13.8257 12.3592 13.8685 12.2753 13.9067C12.323 14.5529 12.2527 15.1837 12.0645 15.799C11.8764 16.4142 11.5585 16.9701 11.111 17.4666C11.0535 17.5448 11.0119 17.6383 10.9861 17.7472C10.9604 17.8561 10.9686 17.9598 11.0107 18.0583C11.0567 18.1715 11.1281 18.2622 11.2248 18.3305C11.3215 18.3987 11.465 18.4073 11.6554 18.3563ZM17.9948 11.0091C18.1265 10.9738 18.2338 10.9058 18.3167 10.8052C18.3996 10.7045 18.4135 10.5517 18.3586 10.3467C18.2096 9.79045 17.9228 9.18868 17.4983 8.54143C17.0738 7.89418 16.501 7.65934 15.7797 7.83691C15.648 7.87221 15.5275 7.92019 15.4182 7.98085C15.3089 8.04151 15.207 8.10021 15.1123 8.15695L13.6301 9.2131C13.683 9.29309 13.7331 9.37772 13.7806 9.46699C13.828 9.55626 13.8708 9.64286 13.909 9.72677C14.5552 9.67914 15.186 9.7494 15.8013 9.93758C16.4165 10.1257 16.9724 10.4436 17.4689 10.8911C17.5324 10.9525 17.614 10.9934 17.7136 11.0138C17.8132 11.0342 17.9069 11.0326 17.9948 11.0091Z" fill="#9DA1A9"/>
</g>
</g>
</svg>
