<svg width="18" height="18" viewBox="0 0 18 18" fill="none" xmlns="http://www.w3.org/2000/svg">
<g id="Icon Left">
<mask style="mask-type:alpha" maskUnits="userSpaceOnUse" x="0" y="0" width="18" height="18">
<rect width="18" height="18" fill="#D9D9D9"/>
</mask>
<g>
<path id="mode_fan" d="M9.92132 16.4563C9.31046 16.62 8.79738 16.5617 8.38208 16.2814C7.96679 16.0011 7.69656 15.6274 7.57139 15.1603C7.48795 14.8489 7.47578 14.528 7.53489 14.1976C7.594 13.8673 7.74162 13.5678 7.97773 13.2991C8.19631 13.0608 8.35114 12.7882 8.44224 12.4814C8.53333 12.1746 8.5687 11.8634 8.54835 11.5479L8.30387 11.4979C8.22237 11.4812 8.14527 11.4569 8.07254 11.4251L6.57848 12.4609C6.39412 12.5873 6.21254 12.7001 6.03373 12.7994C5.85492 12.8986 5.66371 12.9756 5.46009 13.0301C4.7055 13.2323 3.94948 13.0819 3.19205 12.5787C2.43461 12.0756 1.8858 11.1892 1.5456 9.91961C1.38192 9.30875 1.44021 8.79567 1.72048 8.38037C2.00075 7.96508 2.36846 7.69645 2.82362 7.57449C3.13504 7.49105 3.45892 7.47808 3.79527 7.53559C4.13162 7.5931 4.43413 7.73991 4.7028 7.97602C4.9411 8.1946 5.21366 8.34943 5.5205 8.44053C5.82733 8.53162 6.1385 8.56699 6.45398 8.54664L6.50401 8.30216C6.52069 8.22067 6.54496 8.14356 6.57682 8.07083L5.54103 6.57678C5.4146 6.39241 5.30176 6.21083 5.2025 6.03202C5.10324 5.85322 5.02793 5.66799 4.97658 5.47635C4.77118 4.70978 4.92004 3.94777 5.42315 3.19034C5.92627 2.4329 6.81264 1.88409 8.08228 1.54389C8.69314 1.38021 9.20622 1.43851 9.62151 1.71877C10.0368 1.99904 10.3054 2.36676 10.4274 2.82191C10.5108 3.13333 10.5238 3.45721 10.4663 3.79356C10.4088 4.12991 10.262 4.43242 10.0259 4.70109C9.80729 4.93939 9.65245 5.21195 9.56136 5.51879C9.47027 5.82562 9.4349 6.13679 9.45524 6.45227L9.69973 6.5023C9.78122 6.51898 9.85833 6.54325 9.93106 6.57511L11.4203 5.52135C11.6047 5.39493 11.7841 5.28588 11.9585 5.19421C12.1329 5.10255 12.3219 5.02943 12.5255 4.97487C13.4957 4.71491 14.3279 4.92199 15.022 5.59612C15.7162 6.27025 16.1948 7.0984 16.458 8.08057C16.6217 8.69143 16.5544 9.20692 16.2562 9.62702C15.9579 10.0471 15.5752 10.3198 15.1081 10.4449C14.8087 10.5252 14.4998 10.5341 14.1814 10.4718C13.863 10.4095 13.5695 10.2603 13.3008 10.0242C13.0625 9.80558 12.7899 9.65074 12.4831 9.55965C12.1763 9.46856 11.8651 9.43319 11.5496 9.45354L11.4996 9.69802C11.4829 9.77951 11.4586 9.85662 11.4268 9.92935L12.4626 11.4234C12.5858 11.5958 12.6946 11.7624 12.7891 11.9232C12.8835 12.0841 12.9564 12.2603 13.0078 12.452C13.2283 13.2273 13.0895 14.0027 12.5912 14.7781C12.0929 15.5535 11.2029 16.1129 9.92132 16.4563ZM9.29065 10.0781C9.59009 9.99784 9.81653 9.82484 9.96998 9.55907C10.1234 9.29329 10.16 9.01068 10.0798 8.71124C9.99955 8.4118 9.82655 8.18536 9.56078 8.03191C9.295 7.87847 9.01239 7.84186 8.71295 7.9221C8.41351 8.00233 8.18707 8.17534 8.03362 8.44111C7.88018 8.70689 7.84357 8.98949 7.92381 9.28894C8.00404 9.58838 8.17705 9.81482 8.44282 9.96827C8.7086 10.1217 8.9912 10.1583 9.29065 10.0781Z" fill="#9DA1A9"/>
</g>
</g>
</svg>
