<svg width="19" height="19" viewBox="0 0 19 19" fill="none" xmlns="http://www.w3.org/2000/svg">
<circle cx="9.75528" cy="9.41638" r="6.65518" fill="#E9EDEF"/>
<mask id="mask0_3173_3584" style="mask-type:alpha" maskUnits="userSpaceOnUse" x="0" y="0" width="19" height="19">
<rect x="0.755371" y="0.416382" width="18" height="18" fill="#D9D9D9"/>
</mask>
<g mask="url(#mask0_3173_3584)">
<path d="M9.00537 13.1664H10.5054V8.66638H9.00537V13.1664ZM9.75537 7.16638C9.96787 7.16638 10.1461 7.09438 10.2901 6.95038C10.4336 6.80688 10.5054 6.62888 10.5054 6.41638C10.5054 6.20388 10.4336 6.02563 10.2901 5.88163C10.1461 5.73813 9.96787 5.66638 9.75537 5.66638C9.54287 5.66638 9.36487 5.73813 9.22137 5.88163C9.07737 6.02563 9.00537 6.20388 9.00537 6.41638C9.00537 6.62888 9.07737 6.80688 9.22137 6.95038C9.36487 7.09438 9.54287 7.16638 9.75537 7.16638ZM9.75537 16.9164C8.71787 16.9164 7.74287 16.7194 6.83037 16.3254C5.91787 15.9319 5.12412 15.3976 4.44912 14.7226C3.77412 14.0476 3.23987 13.2539 2.84637 12.3414C2.45237 11.4289 2.25537 10.4539 2.25537 9.41638C2.25537 8.37888 2.45237 7.40388 2.84637 6.49138C3.23987 5.57888 3.77412 4.78513 4.44912 4.11013C5.12412 3.43513 5.91787 2.90063 6.83037 2.50663C7.74287 2.11313 8.71787 1.91638 9.75537 1.91638C10.7929 1.91638 11.7679 2.11313 12.6804 2.50663C13.5929 2.90063 14.3866 3.43513 15.0616 4.11013C15.7366 4.78513 16.2709 5.57888 16.6644 6.49138C17.0584 7.40388 17.2554 8.37888 17.2554 9.41638C17.2554 10.4539 17.0584 11.4289 16.6644 12.3414C16.2709 13.2539 15.7366 14.0476 15.0616 14.7226C14.3866 15.3976 13.5929 15.9319 12.6804 16.3254C11.7679 16.7194 10.7929 16.9164 9.75537 16.9164ZM9.75537 15.4164C11.4304 15.4164 12.8491 14.8351 14.0116 13.6726C15.1741 12.5101 15.7554 11.0914 15.7554 9.41638C15.7554 7.74138 15.1741 6.32263 14.0116 5.16013C12.8491 3.99763 11.4304 3.41638 9.75537 3.41638C8.08037 3.41638 6.66162 3.99763 5.49912 5.16013C4.33662 6.32263 3.75537 7.74138 3.75537 9.41638C3.75537 11.0914 4.33662 12.5101 5.49912 13.6726C6.66162 14.8351 8.08037 15.4164 9.75537 15.4164Z" fill="#9DA1A9"/>
</g>
</svg>
