<svg width="16" height="16" viewBox="0 0 16 16" fill="none" xmlns="http://www.w3.org/2000/svg">
  <mask id="mask0_603_844" style="mask-type:alpha" maskUnits="userSpaceOnUse" x="0" y="0" width="16" height="16">
    <rect width="16" height="16" fill="#D9D9D9"/>
  </mask>
  <g mask="url(#mask0_603_844)">
    <path d="M7.33325 11.3333H8.66659V7.33334H7.33325V11.3333ZM7.99992 6C8.18881 6 8.34714 5.93611 8.47492 5.80834C8.6027 5.68056 8.66659 5.52222 8.66659 5.33334C8.66659 5.14445 8.6027 4.98611 8.47492 4.85834C8.34714 4.73056 8.18881 4.66667 7.99992 4.66667C7.81103 4.66667 7.6527 4.73056 7.52492 4.85834C7.39714 4.98611 7.33325 5.14445 7.33325 5.33334C7.33325 5.52222 7.39714 5.68056 7.52492 5.80834C7.6527 5.93611 7.81103 6 7.99992 6ZM7.99992 14.6667C7.0777 14.6667 6.21103 14.4917 5.39992 14.1417C4.58881 13.7917 3.88325 13.3167 3.28325 12.7167C2.68325 12.1167 2.20825 11.4111 1.85825 10.6C1.50825 9.78889 1.33325 8.92222 1.33325 8C1.33325 7.07778 1.50825 6.21111 1.85825 5.4C2.20825 4.58889 2.68325 3.88334 3.28325 3.28334C3.88325 2.68334 4.58881 2.20834 5.39992 1.85834C6.21103 1.50834 7.0777 1.33334 7.99992 1.33334C8.92214 1.33334 9.78881 1.50834 10.5999 1.85834C11.411 2.20834 12.1166 2.68334 12.7166 3.28334C13.3166 3.88334 13.7916 4.58889 14.1416 5.4C14.4916 6.21111 14.6666 7.07778 14.6666 8C14.6666 8.92222 14.4916 9.78889 14.1416 10.6C13.7916 11.4111 13.3166 12.1167 12.7166 12.7167C12.1166 13.3167 11.411 13.7917 10.5999 14.1417C9.78881 14.4917 8.92214 14.6667 7.99992 14.6667Z" fill="#007AFC"/>
  </g>
</svg>
