<svg width="25" height="25" viewBox="0 0 25 25" fill="none" xmlns="http://www.w3.org/2000/svg">
<mask id="mask0_221_23076" style="mask-type:alpha" maskUnits="userSpaceOnUse" x="0" y="0" width="25" height="25">
<rect x="0.460693" y="0.838623" width="24" height="24" fill="#D9D9D9"/>
</mask>
<g mask="url(#mask0_221_23076)">
<rect x="6.46069" y="12.8386" width="12" height="8.15217" rx="1.25939" fill="#232B3A"/>
<path fill-rule="evenodd" clip-rule="evenodd" d="M7.94067 10.3586C7.94067 7.8623 9.96435 5.83862 12.4607 5.83862C14.957 5.83862 16.9807 7.86229 16.9807 10.3586V16.0506C16.9807 16.6029 16.533 17.0506 15.9807 17.0506C15.4284 17.0506 14.9807 16.6029 14.9807 16.0506V10.3586C14.9807 8.96686 13.8524 7.83862 12.4607 7.83862C11.0689 7.83862 9.94067 8.96687 9.94067 10.3586V13.8902C9.94067 14.4425 9.49296 14.8902 8.94067 14.8902C8.38839 14.8902 7.94067 14.4425 7.94067 13.8902V10.3586Z" fill="#232B3A"/>
</g>
</svg>
