<svg width="18" height="19" viewBox="0 0 18 19" fill="none" xmlns="http://www.w3.org/2000/svg">
<path fill-rule="evenodd" clip-rule="evenodd" d="M8.74387 5.46996C8.77438 5.40988 8.80668 5.34972 8.84082 5.28946C9.38797 4.32381 10.3751 3.51955 12.2527 3.51955C13.269 3.51955 14.0121 3.77862 14.5546 4.15763C15.1006 4.53902 15.4894 5.07406 15.741 5.69522C16.2566 6.96798 16.1563 8.50562 15.7346 9.45657C15.3728 10.2725 14.82 11.4056 14.2583 12.5569C13.7938 13.5089 13.3232 14.4733 12.9495 15.2813C12.3469 16.5844 11.0112 16.6638 10.4 16.1229C9.94689 15.722 9.77571 15.2527 9.74096 14.8496C9.72323 14.6441 9.74186 14.4611 9.77507 14.3224C9.80547 14.1954 9.83742 14.1426 9.83742 14.1426C9.83742 14.1426 9.83654 14.1433 9.83511 14.145C10.1061 13.8229 10.067 13.3418 9.74645 13.0678C9.51994 12.8742 9.21324 12.8355 8.9554 12.9416C8.74992 13.4621 8.49982 13.96 8.20983 14.4308C8.1959 14.6063 8.19565 14.7912 8.21207 14.9815C8.27636 15.727 8.59971 16.579 9.38306 17.2721C10.8496 18.5698 13.3574 18.055 14.3423 15.9255C14.6806 15.194 15.1422 14.2467 15.6074 13.2919C16.19 12.0962 16.7783 10.8888 17.1375 10.0786C17.7242 8.75544 17.8384 6.78543 17.1633 5.11905C16.8196 4.27065 16.2618 3.47825 15.4334 2.8996C14.6016 2.31857 13.5426 1.98499 12.2527 1.98499C10.1472 1.98499 8.74449 2.81162 7.875 3.96825C8.20816 4.43899 8.49958 4.94136 8.74387 5.46996ZM9.92986 6.75169C10.228 5.79998 11.0928 5.12946 12.2301 5.16017C13.1226 5.18427 13.744 5.60519 14.1101 6.12673C14.4428 6.6007 14.579 7.18065 14.5123 7.61095C14.4474 8.02971 14.0552 8.31653 13.6365 8.25158C13.2203 8.18704 12.9345 7.79937 12.9947 7.38355L12.9944 7.38463C12.9943 7.38462 12.9943 7.38346 12.9942 7.38117V7.38117C12.9936 7.37009 12.9918 7.33262 12.9759 7.27174C12.9541 7.1881 12.9142 7.09405 12.8541 7.00844C12.7493 6.85914 12.5662 6.70437 12.1887 6.69417C11.7383 6.68201 11.4876 6.91252 11.3942 7.21046C11.2942 7.5299 11.3508 8.04376 11.8382 8.54707C12.3513 9.07706 12.5271 9.72867 12.4758 10.2964C12.4305 10.7974 12.1724 11.435 11.5779 11.6786C11.1857 11.8393 10.7376 11.6517 10.5769 11.2596C10.428 10.8961 10.5783 10.4846 10.9133 10.2984C10.9261 10.2704 10.9416 10.2231 10.9475 10.1583C10.9612 10.0066 10.9188 9.80366 10.7357 9.61455C9.91437 8.7663 9.63843 7.6819 9.92986 6.75169ZM10.8989 10.3241C10.8988 10.324 10.8995 10.323 10.9011 10.3211C10.8997 10.3232 10.8989 10.3242 10.8989 10.3241Z" fill="#9DA1A9"/>
<path d="M1.19115 8.70242L0.375 9.67574L1.21928 10.6826C1.48659 10.4418 1.65464 10.0929 1.65464 9.70483C1.65464 9.30328 1.47474 8.94374 1.19115 8.70242Z" fill="#E36857"/>
<path d="M2.17264 11.8196L3.21434 13.0619C4.17854 12.2517 4.79139 11.037 4.79139 9.67905C4.79139 8.31962 4.17715 7.10364 3.21108 6.29351L2.16938 7.53582C2.78116 8.04855 3.17017 8.81837 3.17017 9.67905C3.17017 10.5382 2.78255 11.3068 2.17264 11.8196Z" fill="#E36857"/>
<path d="M4.154 14.1825L5.1957 15.4248C6.83377 14.049 7.875 11.9856 7.875 9.67905C7.875 7.37096 6.83239 5.30638 5.19244 3.9306L4.15073 5.17291C5.43639 6.25129 6.25378 7.86972 6.25378 9.67905C6.25378 11.4869 5.43778 13.1041 4.154 14.1825Z" fill="#E36857"/>
</svg>
