<svg width="16" height="16" viewBox="0 0 16 16" fill="none" xmlns="http://www.w3.org/2000/svg">
<g id="officon-root">
<mask id="officon-mask" style="mask-type:alpha" maskUnits="userSpaceOnUse" x="0" y="0" width="16" height="16">
<rect id="officon-bounding-box" x="0.421265" y="0.5" width="15" height="15" fill="#D9D9D9"/>
</mask>
<g mask="url(#officon-mask)">
<path id="officon-path" d="M12.7806 14.6406L11.3588 13.2188C10.8483 13.5521 10.3041 13.8073 9.72595 13.9844C9.14783 14.1615 8.54626 14.25 7.92126 14.25C7.05668 14.25 6.24418 14.0859 5.48376 13.7578C4.72335 13.4297 4.06189 12.9844 3.49939 12.4219C2.93689 11.8594 2.49158 11.1979 2.16345 10.4375C1.83533 9.67708 1.67126 8.86458 1.67126 8C1.67126 7.375 1.75981 6.77344 1.93689 6.19531C2.11397 5.61719 2.36918 5.07292 2.70251 4.5625L1.28064 3.14063L2.17126 2.25L13.6713 13.75L12.7806 14.6406ZM7.92126 13C8.36918 13 8.80408 12.9427 9.22595 12.8281C9.64783 12.7135 10.0567 12.5417 10.4525 12.3125L3.60876 5.46875C3.3796 5.86458 3.20772 6.27344 3.09314 6.69531C2.97856 7.11719 2.92126 7.55208 2.92126 8C2.92126 9.38542 3.40824 10.5651 4.3822 11.5391C5.35616 12.513 6.53585 13 7.92126 13ZM13.14 11.4375L12.2338 10.5313C12.4629 10.1354 12.6348 9.72656 12.7494 9.30469C12.864 8.88281 12.9213 8.44792 12.9213 8C12.9213 6.61458 12.4343 5.4349 11.4603 4.46094C10.4864 3.48698 9.30668 3 7.92126 3C7.47335 3 7.03845 3.05729 6.61658 3.17188C6.1947 3.28646 5.78585 3.45833 5.39001 3.6875L4.48376 2.78125C4.99418 2.44792 5.53845 2.19271 6.11658 2.01563C6.6947 1.83854 7.29626 1.75 7.92126 1.75C8.78585 1.75 9.59835 1.91406 10.3588 2.24219C11.1192 2.57031 11.7806 3.01562 12.3431 3.57812C12.9056 4.14062 13.351 4.80208 13.6791 5.5625C14.0072 6.32292 14.1713 7.13542 14.1713 8C14.1713 8.625 14.0827 9.22656 13.9056 9.80469C13.7286 10.3828 13.4733 10.9271 13.14 11.4375Z" fill="#9DA1A9"/>
</g>
</g>
</svg>
