<svg width="24" height="25" viewBox="0 0 24 25" fill="none" xmlns="http://www.w3.org/2000/svg">
<rect x="1.41113" y="4.93066" width="1.94189" height="26.066" transform="rotate(-45 1.41113 4.93066)" fill="#E36857"/>
<path fill-rule="evenodd" clip-rule="evenodd" d="M12 23.3623C10.05 23.3623 8.39583 22.6831 7.0375 21.3248C5.67917 19.9665 5 18.3123 5 16.3623V8.3623C5 7.56337 5.11401 6.8141 5.34202 6.11448L7.02794 7.8004C7.00931 7.9838 7 8.1711 7 8.3623V16.3623C7 17.7456 7.4875 18.9248 8.4625 19.8998C9.4375 20.8748 10.6167 21.3623 12 21.3623C13.3833 21.3623 14.5625 20.8748 15.5375 19.8998C16.2015 19.2358 16.6394 18.4771 16.8512 17.6237L18.4317 19.2042C18.0932 19.9769 17.6035 20.6838 16.9625 21.3248C15.6042 22.6831 13.95 23.3623 12 23.3623ZM18.9749 17.0011C18.9916 16.7918 19 16.5789 19 16.3623V8.3623C19 6.4123 18.3208 4.75814 16.9625 3.3998C15.6042 2.04147 13.95 1.3623 12 1.3623C10.05 1.3623 8.39583 2.04147 7.0375 3.3998C6.7517 3.68561 6.49596 3.98451 6.2703 4.2965L7.72223 5.74844C7.92591 5.42252 8.17266 5.11464 8.4625 4.8248C9.4375 3.8498 10.6167 3.3623 12 3.3623C13.3833 3.3623 14.5625 3.8498 15.5375 4.8248C16.5125 5.7998 17 6.97897 17 8.3623V15.0262L18.9749 17.0011ZM15 12.3623C15.2833 12.3623 15.5208 12.2665 15.7125 12.0748C15.9042 11.8831 16 11.6456 16 11.3623C16 11.079 15.9042 10.8415 15.7125 10.6498C15.5208 10.4581 15.2833 10.3623 15 10.3623C14.7167 10.3623 14.4792 10.4581 14.2875 10.6498C14.0958 10.8415 14 11.079 14 11.3623C14 11.6456 14.0958 11.8831 14.2875 12.0748C14.4792 12.2665 14.7167 12.3623 15 12.3623ZM9 15.3623C9.28333 15.3623 9.52083 15.2665 9.7125 15.0748C9.90417 14.8831 10 14.6456 10 14.3623C10 14.079 9.90417 13.8415 9.7125 13.6498C9.52083 13.4581 9.28333 13.3623 9 13.3623C8.71667 13.3623 8.47917 13.4581 8.2875 13.6498C8.09583 13.8415 8 14.079 8 14.3623C8 14.6456 8.09583 14.8831 8.2875 15.0748C8.47917 15.2665 8.71667 15.3623 9 15.3623ZM9 18.3623C9.28333 18.3623 9.52083 18.2665 9.7125 18.0748C9.90417 17.8831 10 17.6456 10 17.3623C10 17.079 9.90417 16.8415 9.7125 16.6498C9.52083 16.4581 9.28333 16.3623 9 16.3623C8.71667 16.3623 8.47917 16.4581 8.2875 16.6498C8.09583 16.8415 8 17.079 8 17.3623C8 17.6456 8.09583 17.8831 8.2875 18.0748C8.47917 18.2665 8.71667 18.3623 9 18.3623ZM12 18.3623C12.2833 18.3623 12.5208 18.2665 12.7125 18.0748C12.9042 17.8831 13 17.6456 13 17.3623C13 17.079 12.9042 16.8415 12.7125 16.6498C12.5208 16.4581 12.2833 16.3623 12 16.3623C11.7167 16.3623 11.4792 16.4581 11.2875 16.6498C11.0958 16.8415 11 17.079 11 17.3623C11 17.6456 11.0958 17.8831 11.2875 18.0748C11.4792 18.2665 11.7167 18.3623 12 18.3623ZM15.7125 9.07481C15.5208 9.26647 15.2833 9.3623 15 9.3623C14.7167 9.3623 14.4792 9.26647 14.2875 9.07481C14.0958 8.88314 14 8.64564 14 8.3623C14 8.07897 14.0958 7.84147 14.2875 7.64981C14.4792 7.45814 14.7167 7.3623 15 7.3623C15.2833 7.3623 15.5208 7.45814 15.7125 7.64981C15.9042 7.84147 16 8.07897 16 8.3623C16 8.64564 15.9042 8.88314 15.7125 9.07481ZM11.9641 9.3623C12.2474 9.3623 12.4849 9.26647 12.6766 9.07481C12.8683 8.88314 12.9641 8.64564 12.9641 8.3623C12.9641 8.07897 12.8683 7.84147 12.6766 7.64981C12.4849 7.45814 12.2474 7.3623 11.9641 7.3623C11.6808 7.3623 11.4433 7.45814 11.2516 7.64981C11.0599 7.84147 10.9641 8.07897 10.9641 8.3623C10.9641 8.64564 11.0599 8.88314 11.2516 9.07481C11.4433 9.26647 11.6808 9.3623 11.9641 9.3623Z" fill="#E36857"/>
</svg>
