<svg width="24" height="25" viewBox="0 0 24 25" fill="none" xmlns="http://www.w3.org/2000/svg">
<mask id="mask0_521_54797" style="mask-type:alpha" maskUnits="userSpaceOnUse" x="0" y="0" width="24" height="25">
<rect y="0.73291" width="24" height="24" fill="#D9D9D9"/>
</mask>
<g mask="url(#mask0_521_54797)">
<path d="M19.8 23.3327L17.15 20.7327H6.5C4.96667 20.7327 3.66667 20.1994 2.6 19.1327C1.53333 18.066 1 16.766 1 15.2327C1 13.9494 1.39583 12.8077 2.1875 11.8077C2.97917 10.8077 4 10.166 5.25 9.88272C5.3 9.74938 5.35 9.62022 5.4 9.49522C5.45 9.37022 5.5 9.23272 5.55 9.08272L1.4 4.93271L2.8 3.53271L21.2 21.9327L19.8 23.3327ZM6.5 18.7327H15.15L7.1 10.6827C7.06667 10.866 7.04167 11.041 7.025 11.2077C7.00833 11.3744 7 11.5494 7 11.7327H6.5C5.53333 11.7327 4.70833 12.0744 4.025 12.7577C3.34167 13.441 3 14.266 3 15.2327C3 16.1994 3.34167 17.0244 4.025 17.7077C4.70833 18.391 5.53333 18.7327 6.5 18.7327ZM21.6 19.4827L20.15 18.0827C20.4333 17.8494 20.6458 17.5785 20.7875 17.2702C20.9292 16.9619 21 16.616 21 16.2327C21 15.5327 20.7583 14.941 20.275 14.4577C19.7917 13.9744 19.2 13.7327 18.5 13.7327H17V11.7327C17 10.3494 16.5125 9.17022 15.5375 8.19522C14.5625 7.22022 13.3833 6.73272 12 6.73272C11.55 6.73272 11.1167 6.78688 10.7 6.89522C10.2833 7.00355 9.88333 7.17438 9.5 7.40772L8.05 5.95772C8.63333 5.55771 9.25417 5.25355 9.9125 5.04522C10.5708 4.83688 11.2667 4.73271 12 4.73271C13.95 4.73271 15.6042 5.41188 16.9625 6.77022C18.3208 8.12855 19 9.78272 19 11.7327C20.15 11.866 21.1042 12.3619 21.8625 13.2202C22.6208 14.0785 23 15.0827 23 16.2327C23 16.8827 22.875 17.4869 22.625 18.0452C22.375 18.6035 22.0333 19.0827 21.6 19.4827Z" fill="#E36857"/>
</g>
</svg>
