<svg width="167" height="200" viewBox="0 0 167 200" fill="none" xmlns="http://www.w3.org/2000/svg">
  <style>
    path {
      fill: #23292F;
    }
    @media (prefers-color-scheme: dark) {
      path {
        fill: white;
      }
    }
  </style>
  <path d="M166.546 58.9169C166.545 58.8823 166.543 58.8477 166.541 58.8131C166.536 58.7033 166.531 58.5937 166.522 58.484C166.518 58.4456 166.514 58.4074 166.51 58.369C166.5 58.2639 166.49 58.1588 166.476 58.0539C166.47 58.0076 166.463 57.9613 166.456 57.9149C166.442 57.8189 166.428 57.7228 166.411 57.6269C166.4 57.5681 166.387 57.5098 166.375 57.451C166.359 57.3685 166.343 57.2858 166.324 57.2034C166.307 57.1279 166.286 57.0529 166.267 56.9778C166.251 56.9129 166.235 56.8477 166.217 56.7831C166.19 56.6881 166.16 56.5939 166.13 56.4995C166.116 56.455 166.103 56.4102 166.088 56.3658C166.05 56.2511 166.008 56.1371 165.965 56.0234C165.956 55.9993 165.947 55.9749 165.938 55.9509C165.887 55.82 165.832 55.6902 165.775 55.5611C165.771 55.5533 165.768 55.5455 165.765 55.5378C165.703 55.4005 165.638 55.2642 165.569 55.1293C165.568 55.1282 165.568 55.127 165.567 55.1258C165.503 54.9995 165.434 54.8744 165.363 54.7503C165.357 54.7396 165.352 54.7288 165.346 54.7181C165.345 54.7168 165.344 54.7156 165.344 54.7142C165.291 54.6242 165.236 54.5354 165.18 54.4466C165.151 54.4002 165.123 54.3526 165.094 54.3069C165.067 54.2659 165.038 54.2259 165.011 54.1852C164.949 54.0936 164.887 54.002 164.823 53.9132C164.822 53.9125 164.822 53.9117 164.821 53.9109C164.188 53.0418 149.24 32.5477 143.207 25.8638C142.857 25.4769 142.498 25.0738 142.125 24.6571C136.014 17.8118 125.786 6.35483 105.672 1.472C96.5007 -0.754547 86.9546 -0.457655 76.4882 2.37947C67.8555 4.71967 58.3669 8.83705 46.6272 15.3374L45.3433 16.0481C37.4634 20.4099 30.6641 24.174 24.9014 27.8467C24.7098 27.9599 24.5239 28.0792 24.3433 28.2044C13.7497 35.0259 6.73997 41.5886 3.04233 51.1516C-6.30034 75.314 8.65911 95.1658 10.7835 97.8074L27.7441 120.54L4.68881 133.229C4.68408 133.232 4.67956 133.235 4.67475 133.238C4.57289 133.294 4.47217 133.353 4.37179 133.414C4.33414 133.437 4.29593 133.459 4.2587 133.482C4.18863 133.526 4.11962 133.572 4.05032 133.618C3.98406 133.662 3.91753 133.706 3.85289 133.751C3.81411 133.779 3.7759 133.807 3.73726 133.836C3.64529 133.902 3.55417 133.969 3.46538 134.039C3.46043 134.043 3.45506 134.047 3.45005 134.051C3.43613 134.061 3.42314 134.073 3.40943 134.084C3.30559 134.167 3.20353 134.251 3.10421 134.338C3.09058 134.35 3.07744 134.362 3.06387 134.374C2.96378 134.462 2.86567 134.552 2.77024 134.644C2.75244 134.661 2.73534 134.679 2.71761 134.696C2.62995 134.782 2.54377 134.869 2.46007 134.958C2.43358 134.987 2.40815 135.015 2.38216 135.044C2.31046 135.122 2.23968 135.201 2.17109 135.281C2.13521 135.323 2.1006 135.366 2.06563 135.408C2.0099 135.476 1.95452 135.544 1.90105 135.614C1.85718 135.67 1.81487 135.728 1.77263 135.785C1.73081 135.842 1.68907 135.898 1.64873 135.956C1.59929 136.027 1.5516 136.098 1.50435 136.17C1.47369 136.216 1.44304 136.263 1.41337 136.31C1.36117 136.392 1.31094 136.476 1.26157 136.56C1.23897 136.598 1.21622 136.637 1.19418 136.676C1.14226 136.767 1.09246 136.859 1.04394 136.952C1.02628 136.986 1.00855 137.019 0.991312 137.054C0.94229 137.15 0.895458 137.248 0.850179 137.346C0.834851 137.379 0.819664 137.412 0.80483 137.445C0.760965 137.543 0.719217 137.642 0.678954 137.742C0.664474 137.777 0.649922 137.813 0.635866 137.849C0.598428 137.945 0.562898 138.042 0.52885 138.139C0.514158 138.181 0.499466 138.223 0.485479 138.264C0.455176 138.355 0.426498 138.446 0.399091 138.538C0.383833 138.589 0.368858 138.639 0.354448 138.69C0.331279 138.773 0.309593 138.856 0.288826 138.939C0.273286 139 0.25817 139.062 0.243972 139.125C0.227443 139.197 0.211973 139.27 0.19721 139.343C0.182305 139.417 0.168177 139.49 0.154968 139.564C0.14402 139.626 0.133919 139.689 0.124312 139.751C0.110962 139.836 0.0987413 139.922 0.0880044 140.007C0.0813646 140.059 0.0755726 140.111 0.0699216 140.164C0.0595379 140.259 0.050496 140.355 0.0430791 140.451C0.0396886 140.494 0.0370048 140.538 0.0343206 140.581C0.0278927 140.685 0.0230184 140.788 0.0201223 140.891C0.0191334 140.93 0.018639 140.968 0.0180033 141.006C0.0164493 141.114 0.0165194 141.221 0.0188504 141.329C0.0195568 141.365 0.0208287 141.401 0.0221001 141.437C0.0255613 141.545 0.0308594 141.653 0.0382763 141.762C0.0409605 141.8 0.0442803 141.838 0.0473883 141.876C0.0559354 141.981 0.0660363 142.085 0.0782565 142.189C0.0834836 142.233 0.0894175 142.278 0.095351 142.322C0.108136 142.418 0.121911 142.515 0.138016 142.611C0.147058 142.666 0.157299 142.721 0.167471 142.776C0.183082 142.86 0.199187 142.944 0.217412 143.028C0.232175 143.097 0.248634 143.166 0.265163 143.235C0.281622 143.304 0.298221 143.373 0.316445 143.441C0.339049 143.527 0.363842 143.612 0.388989 143.696C0.404388 143.748 0.419434 143.801 0.435964 143.852C0.468245 143.954 0.503139 144.055 0.539023 144.156C0.551596 144.191 0.563605 144.227 0.576602 144.262C0.619479 144.378 0.665463 144.493 0.713426 144.607C0.722397 144.629 0.730873 144.65 0.740056 144.672C0.792751 144.795 0.848908 144.917 0.907536 145.039C0.914671 145.054 0.92131 145.069 0.928515 145.083C0.987215 145.204 1.0493 145.322 1.1138 145.441C1.12157 145.455 1.12828 145.469 1.13612 145.484C1.13838 145.488 1.14099 145.492 1.14325 145.496C1.23925 145.669 1.34068 145.84 1.44911 146.008C1.46889 146.039 1.49015 146.068 1.51014 146.098C1.58855 146.217 1.66957 146.334 1.75426 146.45C1.80004 146.512 1.84659 146.574 1.89377 146.636C1.91567 146.664 1.9358 146.693 1.95812 146.722L24.3656 175.085L24.3997 175.128C29.9948 182.123 36.1677 187.75 42.7466 191.854C48.626 195.521 54.8359 197.986 61.2039 199.182C64.1311 199.731 67.0985 200 70.0228 200C77.1725 200 84.0634 198.392 89.4663 195.343C90.2193 194.918 90.9562 194.465 91.6793 193.991C99.3358 189.774 116.705 180.144 123.959 175.619C125.08 174.919 126.221 174.221 127.43 173.482C137.838 167.114 149.635 159.897 155.53 147.708C158.217 142.151 161.296 134.484 161.247 124.439C161.193 113.116 157.082 100.967 149.028 88.3257L142.667 78.186L162.03 67.0388C162.031 67.038 162.033 67.0371 162.034 67.0363C162.124 66.9846 162.212 66.9292 162.3 66.8741C162.347 66.8447 162.396 66.8165 162.442 66.7865C162.482 66.7604 162.521 66.7321 162.561 66.7053C162.654 66.643 162.746 66.5808 162.836 66.5156C162.837 66.5152 162.837 66.5147 162.838 66.5144C162.843 66.5106 162.848 66.5067 162.853 66.5031C163.098 66.3237 163.333 66.1338 163.556 65.9341C163.557 65.9328 163.559 65.9316 163.56 65.9304C163.67 65.8315 163.778 65.7303 163.882 65.6269C163.896 65.6132 163.909 65.5991 163.923 65.5854C164.013 65.4946 164.102 65.4028 164.188 65.3088C164.216 65.2787 164.242 65.2476 164.269 65.2172C164.339 65.1388 164.409 65.06 164.475 64.9794C164.515 64.9323 164.552 64.8837 164.59 64.8357C164.642 64.7704 164.694 64.7055 164.744 64.6389C164.792 64.5757 164.837 64.5114 164.882 64.4473C164.92 64.3941 164.959 64.3412 164.996 64.287C165.047 64.2107 165.096 64.1331 165.146 64.0554C165.174 64.0115 165.203 63.9681 165.23 63.9238C165.282 63.8376 165.332 63.7502 165.381 63.6626C165.403 63.6246 165.425 63.5872 165.446 63.5492C165.496 63.4569 165.544 63.3635 165.591 63.2697C165.608 63.2343 165.627 63.1991 165.645 63.1634C165.69 63.0687 165.733 62.973 165.776 62.8771C165.792 62.8403 165.809 62.804 165.825 62.7672C165.865 62.6738 165.902 62.5795 165.938 62.485C165.954 62.4436 165.971 62.4024 165.987 62.3607C166.02 62.2717 166.05 62.1818 166.08 62.0918C166.096 62.0433 166.114 61.9949 166.129 61.9461C166.155 61.8635 166.179 61.7803 166.203 61.6971C166.219 61.6392 166.236 61.5818 166.252 61.5236C166.271 61.4497 166.288 61.3752 166.306 61.3009C166.322 61.2324 166.339 61.164 166.354 61.0949C166.367 61.0306 166.379 60.966 166.391 60.9014C166.406 60.8218 166.422 60.7421 166.435 60.662C166.443 60.6072 166.45 60.5522 166.458 60.4974C166.471 60.4071 166.484 60.3168 166.495 60.2262C166.5 60.1801 166.503 60.1337 166.508 60.0876C166.518 59.9883 166.527 59.8889 166.533 59.7893C166.535 59.7499 166.537 59.7104 166.539 59.671C166.544 59.5649 166.549 59.4589 166.55 59.3525C166.551 59.3173 166.55 59.2822 166.55 59.247C166.55 59.1368 166.55 59.0269 166.546 58.9169ZM25.1462 86.8722C25.1399 86.8639 25.1332 86.8561 25.127 86.8479C25.0786 86.7835 25.0274 86.7204 24.9769 86.6569C24.9285 86.596 24.8808 86.5344 24.8312 86.4751C24.8241 86.4666 24.8178 86.4579 24.8108 86.4495C24.7844 86.4185 22.0987 83.1064 20.1205 77.902C17.4676 70.9222 17.3882 64.1099 19.8843 57.6545C21.8552 52.5569 26.3844 48.3741 33.739 43.602C45.4012 38.6011 52.1514 41.6243 54.3932 42.6286C58.4645 44.452 62.0047 47.4817 65.0902 50.7286L42.3079 63.6807C42.2863 63.6926 42.2649 63.7053 42.2432 63.7175L42.2053 63.739C42.1835 63.7514 42.1629 63.7651 42.141 63.7777C42.0404 63.8363 41.94 63.8956 41.8409 63.9586C41.7808 63.9965 41.7227 64.0362 41.6639 64.0754C41.6016 64.117 41.5391 64.1576 41.4775 64.2009C41.3849 64.2657 41.2951 64.3332 41.2054 64.401C41.1828 64.4183 41.1595 64.4339 41.1368 64.4514C41.1318 64.4555 41.127 64.4597 41.1219 64.4636C41.0109 64.5498 40.9026 64.6386 40.7964 64.7294C40.7887 64.736 40.7806 64.7423 40.7729 64.7489C40.6603 64.8458 40.5506 64.9452 40.4435 65.0468C40.4406 65.0496 40.4375 65.0523 40.4346 65.0551C40.3312 65.1535 40.2308 65.2542 40.133 65.3569C40.1257 65.3643 40.1181 65.3717 40.1109 65.3792C40.0235 65.4715 39.9392 65.5657 39.8563 65.6611C39.8393 65.6806 39.8214 65.6995 39.8046 65.7192C39.7377 65.7974 39.6737 65.8775 39.6098 65.9578C39.579 65.9962 39.547 66.0339 39.5171 66.0728C39.4729 66.1302 39.4312 66.189 39.3886 66.2472C39.342 66.3106 39.2946 66.3734 39.2499 66.4378C39.229 66.4679 39.2098 66.4988 39.1893 66.5293C38.5505 67.4737 38.1037 68.5193 37.8604 69.6072C37.8465 69.669 37.8357 69.7314 37.8231 69.7934C37.8076 69.8705 37.7906 69.947 37.7771 70.0243C37.6035 71.0116 37.594 72.0304 37.7588 73.0381C37.7592 73.04 37.7594 73.0421 37.7598 73.0442C37.7772 73.1502 37.7983 73.256 37.8197 73.3618C37.8279 73.4028 37.8347 73.444 37.8435 73.4849C37.8591 73.5565 37.8775 73.6278 37.895 73.6994C37.9131 73.7746 37.9301 73.8499 37.9502 73.9247C37.9618 73.9673 37.9753 74.0095 37.9874 74.0521C38.017 74.1556 38.0468 74.259 38.0801 74.3617C38.0866 74.3816 38.0941 74.4013 38.1007 74.4213C38.1421 74.546 38.1856 74.6701 38.2327 74.7934C38.2344 74.7981 38.2366 74.8029 38.2385 74.8076C38.3451 75.0855 38.4663 75.3596 38.6021 75.6291C38.6047 75.6342 38.6075 75.6392 38.61 75.6442C38.6751 75.773 38.7435 75.9006 38.8152 76.027C38.8179 76.0318 38.8202 76.0364 38.8229 76.0412C38.8291 76.052 38.8361 76.062 38.8423 76.0728C38.9258 76.2176 39.0141 76.3606 39.1064 76.502C39.1358 76.5472 39.1652 76.592 39.1954 76.6364C39.2706 76.7475 39.3493 76.857 39.4303 76.9657C39.4648 77.0122 39.4979 77.0599 39.5333 77.1056C39.5342 77.1068 39.535 77.1079 39.5359 77.1091L81.8342 131.61L65.7571 141.305L48.3359 117.954C48.3322 117.95 48.3287 117.945 48.3252 117.94L25.1462 86.8722ZM91.566 165.524C89.5094 172.522 85.1263 176.576 82.2488 178.583C80.4593 179.568 79.3615 180.169 79.3088 180.198C79.1881 180.264 79.0703 180.333 78.9538 180.404C75.6957 181.703 70.515 182.571 64.5368 181.449C60.3869 180.67 56.2721 179.021 52.3072 176.548C47.4705 173.531 42.8312 169.269 38.5184 163.882L22.731 143.898L38.6385 135.143L56.175 158.648C56.2062 158.689 56.2401 158.728 56.272 158.77C56.3337 158.85 56.3962 158.929 56.4602 159.007C56.515 159.073 56.5715 159.138 56.6279 159.202C56.6971 159.281 56.766 159.36 56.8374 159.436C56.8957 159.498 56.9559 159.557 57.0155 159.617C57.0873 159.689 57.1583 159.762 57.2322 159.831C57.3009 159.896 57.372 159.957 57.4424 160.02C57.51 160.079 57.5765 160.14 57.6458 160.198C57.749 160.284 57.8552 160.365 57.9616 160.445C58.0008 160.475 58.0384 160.507 58.0781 160.536C58.229 160.646 58.3828 160.751 58.5391 160.852C58.5627 160.867 58.5875 160.88 58.6112 160.895C58.7449 160.979 58.88 161.06 59.0172 161.136C59.0588 161.159 59.1015 161.18 59.1433 161.203C59.2641 161.267 59.3855 161.33 59.5087 161.389C59.5597 161.414 59.6114 161.436 59.6628 161.459C59.7783 161.512 59.8943 161.563 60.0117 161.611C60.0697 161.634 60.1283 161.656 60.1868 161.679C60.2986 161.721 60.4108 161.762 60.524 161.8C60.5884 161.822 60.653 161.843 60.7177 161.863C60.8257 161.896 60.9342 161.928 61.0434 161.957C61.1138 161.977 61.1842 161.995 61.2552 162.013C61.3591 162.038 61.4635 162.061 61.5681 162.083C61.6443 162.099 61.7204 162.115 61.797 162.129C61.8967 162.147 61.997 162.162 62.0974 162.177C62.1789 162.189 62.26 162.202 62.3418 162.212C62.4374 162.223 62.5333 162.231 62.6292 162.239C62.7155 162.247 62.8015 162.256 62.8882 162.261C62.9795 162.267 63.0709 162.267 63.1623 162.27C63.2485 162.273 63.3345 162.278 63.4209 162.278C63.651 162.278 63.8816 162.268 64.1121 162.251C64.122 162.25 64.132 162.249 64.1419 162.248C64.2444 162.24 64.3467 162.23 64.4491 162.218C64.4654 162.216 64.4818 162.214 64.4981 162.212C64.5964 162.2 64.6945 162.187 64.7925 162.172C64.8087 162.17 64.8251 162.167 64.8412 162.165C64.9471 162.148 65.0528 162.129 65.1583 162.108C65.1648 162.107 65.1715 162.106 65.178 162.105C65.2911 162.082 65.4041 162.057 65.5168 162.03C65.532 162.027 65.5473 162.022 65.5625 162.019C65.6524 161.997 65.7421 161.973 65.8316 161.949C65.8773 161.936 65.9226 161.922 65.9681 161.909C66.0261 161.891 66.0842 161.874 66.142 161.856C66.1975 161.838 66.2529 161.82 66.308 161.801C66.3543 161.785 66.4004 161.769 66.4465 161.753C66.5084 161.731 66.5701 161.708 66.6317 161.685C66.6679 161.671 66.7041 161.656 66.7403 161.642C66.8094 161.614 66.8784 161.587 66.947 161.558C66.966 161.549 66.9848 161.541 67.0037 161.533C67.2536 161.424 67.4997 161.304 67.7421 161.171C67.7661 161.158 67.7904 161.145 67.8142 161.132C67.8745 161.098 67.9342 161.063 67.9939 161.028C68.0215 161.011 68.0493 160.996 68.0767 160.979L90.8353 147.255C92.9141 153.841 93.1781 160.039 91.566 165.524ZM143.192 124.526C143.223 130.815 141.327 135.611 139.273 139.857C135.686 147.275 126.696 152.775 118.002 158.094C116.814 158.821 115.585 159.573 114.397 160.314C113.31 160.992 111.959 161.804 110.428 162.707C111.309 154.04 109.962 142.552 102.486 128.969C102.408 128.826 102.326 128.684 102.239 128.545C102.236 128.539 102.233 128.534 102.229 128.528C102.19 128.466 102.148 128.404 102.107 128.342C101.969 128.13 101.824 127.926 101.671 127.729L60.1856 74.2751L76.4385 65.0351L98.6434 94.4093C98.6518 94.4203 98.6609 94.4305 98.6693 94.4415C98.7353 94.5281 98.8043 94.6112 98.873 94.6949C98.9248 94.7578 98.976 94.8216 99.029 94.8829C99.1004 94.9654 99.1741 95.0451 99.2482 95.1244C99.3046 95.185 99.361 95.2452 99.4187 95.3038C99.4905 95.3768 99.5637 95.448 99.6376 95.5181C99.7038 95.5807 99.7705 95.6423 99.8383 95.7027C99.9071 95.7641 99.9765 95.8248 100.047 95.8839C100.127 95.951 100.208 96.0158 100.29 96.0797C100.352 96.1282 100.414 96.1771 100.477 96.2238C100.578 96.2983 100.68 96.3689 100.783 96.4388C100.832 96.4715 100.879 96.5057 100.928 96.5374C101.073 96.6315 101.22 96.721 101.37 96.806C101.379 96.8116 101.389 96.8179 101.399 96.8235C101.731 97.0112 102.074 97.1762 102.424 97.3192C102.458 97.3331 102.493 97.345 102.527 97.3586C102.663 97.4126 102.801 97.4639 102.94 97.5111C102.993 97.529 103.046 97.5453 103.1 97.5622C103.221 97.6006 103.342 97.6372 103.464 97.6705C103.528 97.6881 103.593 97.7045 103.658 97.7207C103.769 97.7486 103.881 97.7742 103.993 97.7978C104.066 97.8129 104.139 97.8278 104.212 97.8415C104.317 97.8606 104.423 97.8772 104.528 97.8928C104.607 97.9046 104.687 97.9168 104.766 97.9265C104.866 97.9387 104.968 97.9473 105.069 97.956C105.152 97.9633 105.235 97.9722 105.319 97.9772C105.423 97.9833 105.527 97.9847 105.631 97.9871C105.706 97.9891 105.78 97.9945 105.855 97.9945C105.883 97.9945 105.91 97.9922 105.937 97.992C106.069 97.9907 106.2 97.9862 106.332 97.9792C106.388 97.9763 106.444 97.9734 106.5 97.9694C106.652 97.9585 106.803 97.9442 106.955 97.9256C107.001 97.9199 107.047 97.9128 107.094 97.9063C107.231 97.8874 107.368 97.8653 107.505 97.84C107.537 97.8339 107.569 97.8289 107.601 97.8225C107.767 97.7899 107.931 97.7515 108.095 97.7094C108.128 97.701 108.161 97.6924 108.193 97.6836C108.366 97.6372 108.538 97.5865 108.709 97.5294L108.71 97.529C108.894 97.4676 109.076 97.3991 109.257 97.3254C109.262 97.3234 109.267 97.3216 109.271 97.3196C109.451 97.246 109.629 97.1656 109.805 97.0797C109.813 97.0759 109.821 97.0718 109.829 97.0678C110.017 96.9753 110.202 96.8768 110.385 96.77L127.011 87.1987L133.746 97.9341L133.781 97.9899C139.988 107.725 143.154 116.653 143.192 124.526ZM108.246 77.179L83.0754 43.8813C83.0723 43.8774 83.0692 43.8738 83.0663 43.8698C82.9858 43.764 82.9032 43.659 82.8173 43.5556C82.8083 43.5449 82.7984 43.5331 82.7894 43.5223C82.7872 43.5197 82.7851 43.5171 82.783 43.5145C80.7919 41.1199 77.7364 37.5796 74.0891 34.3231C70.5856 31.195 67.0614 28.7593 63.3617 26.9136C79.705 18.7929 91.0865 16.4986 101.41 19.0046C116.057 22.5606 123.337 30.7146 128.653 36.6683C129.047 37.1106 129.429 37.5382 129.799 37.9486C132.825 41.3005 139.17 49.6292 144.257 56.4476L108.246 77.179Z" fill="#23292F"/>
</svg>
