<svg width="20" height="20" viewBox="0 0 20 20" fill="none" xmlns="http://www.w3.org/2000/svg">
<mask id="mask0_240_24226" style="mask-type:alpha" maskUnits="userSpaceOnUse" x="0" y="0" width="20" height="20">
<rect width="20" height="20" fill="#D9D9D9"/>
</mask>
<g mask="url(#mask0_240_24226)">
<path d="M16.3333 17.5L11.0833 12.25C10.6667 12.5833 10.1875 12.8472 9.64583 13.0417C9.10417 13.2361 8.52778 13.3333 7.91667 13.3333C6.40278 13.3333 5.12167 12.8092 4.07333 11.7608C3.02444 10.7119 2.5 9.43056 2.5 7.91667C2.5 6.40278 3.02444 5.12139 4.07333 4.0725C5.12167 3.02417 6.40278 2.5 7.91667 2.5C9.43056 2.5 10.7119 3.02417 11.7608 4.0725C12.8092 5.12139 13.3333 6.40278 13.3333 7.91667C13.3333 8.52778 13.2361 9.10417 13.0417 9.64583C12.8472 10.1875 12.5833 10.6667 12.25 11.0833L17.5 16.3333L16.3333 17.5ZM7.91667 11.6667C8.95833 11.6667 9.84389 11.3022 10.5733 10.5733C11.3022 9.84389 11.6667 8.95833 11.6667 7.91667C11.6667 6.875 11.3022 5.98944 10.5733 5.26C9.84389 4.53111 8.95833 4.16667 7.91667 4.16667C6.875 4.16667 5.98944 4.53111 5.26 5.26C4.53111 5.98944 4.16667 6.875 4.16667 7.91667C4.16667 8.95833 4.53111 9.84389 5.26 10.5733C5.98944 11.3022 6.875 11.6667 7.91667 11.6667Z" fill="#6E7179"/>
</g>
</svg>
