<svg width="24" height="25" viewBox="0 0 24 25" fill="none" xmlns="http://www.w3.org/2000/svg">
<g id="icn24/search">
<mask id="mask0_358_47888" style="mask-type:alpha" maskUnits="userSpaceOnUse" x="0" y="0" width="24" height="25">
<rect id="Bounding box" y="0.988281" width="24" height="24" fill="#D9D9D9"/>
</mask>
<g mask="url(#mask0_358_47888)">
<path id="search" d="M19.6 21.9883L13.3 15.6883C12.8 16.0883 12.225 16.4049 11.575 16.6383C10.925 16.8716 10.2333 16.9883 9.5 16.9883C7.68333 16.9883 6.146 16.3593 4.888 15.1013C3.62933 13.8426 3 12.3049 3 10.4883C3 8.67161 3.62933 7.13395 4.888 5.87528C6.146 4.61728 7.68333 3.98828 9.5 3.98828C11.3167 3.98828 12.8543 4.61728 14.113 5.87528C15.371 7.13395 16 8.67161 16 10.4883C16 11.2216 15.8833 11.9133 15.65 12.5633C15.4167 13.2133 15.1 13.7883 14.7 14.2883L21 20.5883L19.6 21.9883ZM9.5 14.9883C10.75 14.9883 11.8127 14.5509 12.688 13.6763C13.5627 12.8009 14 11.7383 14 10.4883C14 9.23828 13.5627 8.17561 12.688 7.30028C11.8127 6.42561 10.75 5.98828 9.5 5.98828C8.25 5.98828 7.18733 6.42561 6.312 7.30028C5.43733 8.17561 5 9.23828 5 10.4883C5 11.7383 5.43733 12.8009 6.312 13.6763C7.18733 14.5509 8.25 14.9883 9.5 14.9883Z" fill="#232B3A"/>
</g>
</g>
</svg>
