<svg width="14" height="14" viewBox="0 0 14 14" fill="none" xmlns="http://www.w3.org/2000/svg">
<path d="M11.7806 13.6406L10.3588 12.2188C9.84835 12.5521 9.30408 12.8073 8.72595 12.9844C8.14783 13.1615 7.54626 13.25 6.92126 13.25C6.05668 13.25 5.24418 13.0859 4.48376 12.7578C3.72335 12.4297 3.06189 11.9844 2.49939 11.4219C1.93689 10.8594 1.49158 10.1979 1.16345 9.4375C0.835327 8.67708 0.671265 7.86458 0.671265 7C0.671265 6.375 0.759806 5.77344 0.93689 5.19531C1.11397 4.61719 1.36918 4.07292 1.70251 3.5625L0.28064 2.14063L1.17126 1.25L12.6713 12.75L11.7806 13.6406ZM6.92126 12C7.36918 12 7.80408 11.9427 8.22595 11.8281C8.64783 11.7135 9.05668 11.5417 9.45251 11.3125L2.60876 4.46875C2.3796 4.86458 2.20772 5.27344 2.09314 5.69531C1.97856 6.11719 1.92126 6.55208 1.92126 7C1.92126 8.38542 2.40824 9.5651 3.3822 10.5391C4.35616 11.513 5.53585 12 6.92126 12ZM12.14 10.4375L11.2338 9.53125C11.4629 9.13542 11.6348 8.72656 11.7494 8.30469C11.864 7.88281 11.9213 7.44792 11.9213 7C11.9213 5.61458 11.4343 4.4349 10.4603 3.46094C9.48637 2.48698 8.30668 2 6.92126 2C6.47335 2 6.03845 2.05729 5.61658 2.17188C5.1947 2.28646 4.78585 2.45833 4.39001 2.6875L3.48376 1.78125C3.99418 1.44792 4.53845 1.19271 5.11658 1.01562C5.6947 0.838542 6.29626 0.75 6.92126 0.75C7.78585 0.75 8.59835 0.914062 9.35876 1.24219C10.1192 1.57031 10.7806 2.01562 11.3431 2.57812C11.9056 3.14062 12.351 3.80208 12.6791 4.5625C13.0072 5.32292 13.1713 6.13542 13.1713 7C13.1713 7.625 13.0827 8.22656 12.9056 8.80469C12.7286 9.38281 12.4733 9.92708 12.14 10.4375Z" fill="#9DA1A9"/>
</svg>
