<svg width="19" height="18" viewBox="0 0 19 18" fill="none" xmlns="http://www.w3.org/2000/svg">
<path d="M13.6331 17.5599V15.539L12.0504 17.0973L11.3687 16.4156L13.6331 14.1512V13.1772H12.6591L10.3947 15.4416L9.71299 14.7599L11.2713 13.1772H9.25037V12.2033H11.2713L9.71299 10.6206L10.3947 9.93887L12.6591 12.2033H13.6331V11.2293L11.3687 8.96493L12.0504 8.28318L13.6331 9.84148V7.82056H14.607V9.84148L16.1897 8.28318L16.8714 8.96493L14.607 11.2293V12.2033H15.581L17.8454 9.93887L18.5271 10.6206L16.9688 12.2033H18.9897V13.1772H16.9688L18.5271 14.7599L17.8454 15.4416L15.581 13.1772H14.607V14.1512L16.8714 16.4156L16.1897 17.0973L14.607 15.539V17.5599H13.6331Z" fill="#6B95FF"/>
<path d="M0.910278 6.20132C0.910278 5.27475 1.12747 4.44967 1.56184 3.72607C1.99622 3.00246 2.47404 2.39358 2.99529 1.89941C3.51654 1.40524 3.99435 1.028 4.42873 0.767678L5.0803 0.377197V2.12443C5.0803 2.45094 5.18889 2.70905 5.40608 2.89878C5.62327 3.0885 5.86652 3.18336 6.13583 3.18336C6.28352 3.18336 6.42469 3.15248 6.55935 3.09071C6.69401 3.02894 6.8178 2.92746 6.93074 2.78627L7.16531 2.49506C7.79081 2.86569 8.29469 3.37971 8.67694 4.03713C9.05919 4.69455 9.25031 5.41594 9.25031 6.20132C9.25031 6.97787 9.06353 7.68603 8.68997 8.3258C8.3164 8.96557 7.82556 9.47077 7.21743 9.84139C7.36512 9.62961 7.48023 9.39797 7.56276 9.14647C7.64529 8.89497 7.68656 8.62804 7.68656 8.34565C7.68656 7.99268 7.6214 7.65955 7.49109 7.34629C7.36077 7.03302 7.17399 6.75284 6.93074 6.50576L5.0803 4.66587L3.24288 6.50576C2.99094 6.76167 2.79982 7.04405 2.6695 7.35291C2.53919 7.66176 2.47404 7.99268 2.47404 8.34565C2.47404 8.62804 2.5153 8.89497 2.59783 9.14647C2.68036 9.39797 2.79547 9.62961 2.94316 9.84139C2.33503 9.47077 1.84419 8.96557 1.47062 8.3258C1.09706 7.68603 0.910278 6.97787 0.910278 6.20132ZM5.0803 6.14837L6.18796 7.24701C6.33565 7.39703 6.44858 7.56469 6.52677 7.75001C6.60496 7.93532 6.64405 8.13387 6.64405 8.34565C6.64405 8.77805 6.49202 9.14647 6.18796 9.45091C5.88389 9.75536 5.51467 9.90758 5.0803 9.90758C4.64592 9.90758 4.2767 9.75536 3.97264 9.45091C3.66857 9.14647 3.51654 8.77805 3.51654 8.34565C3.51654 8.14269 3.55563 7.94635 3.63382 7.75662C3.71201 7.5669 3.82495 7.39703 3.97264 7.24701L5.0803 6.14837Z" fill="#FC8E28"/>
</svg>
