<svg width="12" height="14" viewBox="0 0 12 14" fill="none" xmlns="http://www.w3.org/2000/svg">
<path d="M0 8.5C0 7.1875 0.3125 6.01875 0.9375 4.99375C1.5625 3.96875 2.25 3.10625 3 2.40625C3.75 1.70625 4.4375 1.17188 5.0625 0.803125L6 0.25V2.725C6 3.1875 6.15625 3.55313 6.46875 3.82188C6.78125 4.09063 7.13125 4.225 7.51875 4.225C7.73125 4.225 7.93438 4.18125 8.12813 4.09375C8.32188 4.00625 8.5 3.8625 8.6625 3.6625L9 3.25C9.9 3.775 10.625 4.50312 11.175 5.43437C11.725 6.36562 12 7.3875 12 8.5C12 9.6 11.7312 10.6031 11.1938 11.5094C10.6562 12.4156 9.95 13.1313 9.075 13.6562C9.2875 13.3562 9.45312 13.0281 9.57187 12.6719C9.69063 12.3156 9.75 11.9375 9.75 11.5375C9.75 11.0375 9.65625 10.5656 9.46875 10.1219C9.28125 9.67813 9.0125 9.28125 8.6625 8.93125L6 6.325L3.35625 8.93125C2.99375 9.29375 2.71875 9.69375 2.53125 10.1313C2.34375 10.5688 2.25 11.0375 2.25 11.5375C2.25 11.9375 2.30938 12.3156 2.42812 12.6719C2.54688 13.0281 2.7125 13.3562 2.925 13.6562C2.05 13.1313 1.34375 12.4156 0.80625 11.5094C0.26875 10.6031 0 9.6 0 8.5ZM6 8.425L7.59375 9.98125C7.80625 10.1938 7.96875 10.4313 8.08125 10.6938C8.19375 10.9563 8.25 11.2375 8.25 11.5375C8.25 12.15 8.03125 12.6719 7.59375 13.1031C7.15625 13.5344 6.625 13.75 6 13.75C5.375 13.75 4.84375 13.5344 4.40625 13.1031C3.96875 12.6719 3.75 12.15 3.75 11.5375C3.75 11.25 3.80625 10.9719 3.91875 10.7031C4.03125 10.4344 4.19375 10.1938 4.40625 9.98125L6 8.425Z" fill="#FC8E28"/>
</svg>
