<svg width="16" height="16" viewBox="0 0 16 16" fill="none" xmlns="http://www.w3.org/2000/svg">
<path d="M7.25 15.5V12.3875L4.8125 14.7875L3.7625 13.7375L7.25 10.25V8.75H5.75L2.2625 12.2375L1.2125 11.1875L3.6125 8.75H0.5V7.25H3.6125L1.2125 4.8125L2.2625 3.7625L5.75 7.25H7.25V5.75L3.7625 2.2625L4.8125 1.2125L7.25 3.6125V0.5H8.75V3.6125L11.1875 1.2125L12.2375 2.2625L8.75 5.75V7.25H10.25L13.7375 3.7625L14.7875 4.8125L12.3875 7.25H15.5V8.75H12.3875L14.7875 11.1875L13.7375 12.2375L10.25 8.75H8.75V10.25L12.2375 13.7375L11.1875 14.7875L8.75 12.3875V15.5H7.25Z" fill="#6B95FF"/>
</svg>
