<svg width="24" height="24" viewBox="0 0 24 24" fill="none" xmlns="http://www.w3.org/2000/svg">
<path d="M10.0002 10C10.5525 10 11.0002 10.4477 11.0002 11V17C11.0002 17.5523 10.5525 18 10.0002 18C9.44796 18 9.00024 17.5523 9.00024 17V11C9.00024 10.4477 9.44796 10 10.0002 10Z" fill="currentColor"/>
<path d="M15.0002 17V11C15.0002 10.4477 14.5525 10 14.0002 10C13.448 10 13.0002 10.4477 13.0002 11V17C13.0002 17.5523 13.448 18 14.0002 18C14.5525 18 15.0002 17.5523 15.0002 17Z" fill="currentColor"/>
<path fill-rule="evenodd" clip-rule="evenodd" d="M7.00024 5V4C7.00024 3.20435 7.31632 2.44129 7.87892 1.87868C8.44153 1.31607 9.20459 1 10.0002 1H14.0002C14.7959 1 15.559 1.31607 16.1216 1.87868C16.6842 2.44129 17.0002 3.20435 17.0002 4V5H21.0002C21.5525 5 22.0002 5.44772 22.0002 6C22.0002 6.55228 21.5525 7 21.0002 7H20.0002V20C20.0002 20.7957 19.6842 21.5587 19.1216 22.1213C18.559 22.6839 17.7959 23 17.0002 23H7.00024C6.20459 23 5.44153 22.6839 4.87892 22.1213C4.31631 21.5587 4.00024 20.7957 4.00024 20V7H3.00024C2.44796 7 2.00024 6.55228 2.00024 6C2.00024 5.44772 2.44796 5 3.00024 5H7.00024ZM9.29314 3.29289C9.48067 3.10536 9.73503 3 10.0002 3H14.0002C14.2655 3 14.5198 3.10536 14.7074 3.29289C14.8949 3.48043 15.0002 3.73478 15.0002 4V5H9.00024V4C9.00024 3.73478 9.1056 3.48043 9.29314 3.29289ZM18.0002 7V20C18.0002 20.2652 17.8949 20.5196 17.7074 20.7071C17.5198 20.8946 17.2655 21 17.0002 21H7.00024C6.73503 21 6.48067 20.8946 6.29314 20.7071C6.1056 20.5196 6.00024 20.2652 6.00024 20V7H18.0002Z" fill="currentColor"/>
</svg>
